<?xml version="1.0" encoding="utf-8"?>
<!-- Generator: Adobe Illustrator 16.0.0, SVG Export Plug-In . SVG Version: 6.00 Build 0)  -->
<!DOCTYPE svg PUBLIC "-//W3C//DTD SVG 1.1//EN" "http://www.w3.org/Graphics/SVG/1.1/DTD/svg11.dtd">
<svg version="1.1" id="BG_White_xA0_Image_1_" xmlns="http://www.w3.org/2000/svg" xmlns:xlink="http://www.w3.org/1999/xlink"
	 x="0px" y="0px" width="128.161" height="30px" viewBox="0 0 224.333 52.512" enable-background="new 0 0 224.333 52.512"
	 xml:space="preserve">
<path fill="#1A8DC6" d="M0,39.384l22.654,13.128l22.653-13.128V20.772c0,0-5.803,4.283-9.605,8.765c0,0-1.361-3.442-3.442-6.684
	c0,0,2.521-4.083,12.327-10.086l-2.842-1.721c0,0-4.083,1.961-11.327,9.086c0,0-3.022-4.022-4.823-5.503
	c0,0,2.562-3.102,9.146-7.585L22.654,0L10.566,6.944c0,0,9.099,4.957,13.688,10.373c0,0,2.188,2.16,5.257,6.99
	c0,0,2.961,5.309,3.789,7.71c0,0-3.575,4.242-4.162,5.149c0,0-3.629-7.551-7.685-12.14c0,0-5.042-6.109-10.62-9.604
	c0,0-4.109-2.722-7.391-4.242L0.48,12.914c0,0,6.751,3.148,10.247,6.003c0,0,3.496,2.614,6.804,6.323c0,0,0.908,0.692,4.75,6.589
	c0,0,1.221,1.369,4.216,9.045l-3.709,5.896c0,0-2.695-6.083-5.069-9.551c0,0-4.51-6.617-7.525-9.125c0,0-5.737-5.229-10.193-7.55
	V39.384z"/>
<g>
	<path fill="#1A8DC6" d="M65.992,38.667L58,13.727h6.179l3.035,10.546c0.851,2.96,1.628,5.81,2.22,8.917h0.111
		c0.629-2.997,1.406-5.957,2.257-8.807l3.183-10.657h5.994l-8.399,24.94H65.992z"/>
	<path fill="#1A8DC6" d="M83.641,38.667v-24.94h6.586l5.18,9.14c1.48,2.627,2.96,5.736,4.07,8.548h0.111
		c-0.37-3.293-0.481-6.661-0.481-10.398v-7.29h5.181v24.94h-5.921l-5.328-9.621c-1.48-2.664-3.108-5.883-4.329-8.807l-0.111,0.037
		c0.148,3.293,0.222,6.808,0.222,10.878v7.512H83.641z"/>
	<path fill="#1A8DC6" d="M124.008,28.121h-9.177v5.92h10.25v4.625H109.17v-24.94h15.393v4.625h-9.732v5.18h9.177V28.121z"/>
	<path fill="#1A8DC6" d="M147.244,37.963c-1.036,0.518-3.367,1.073-6.402,1.073c-8.622,0-13.062-5.365-13.062-12.47
		c0-8.511,6.068-13.247,13.617-13.247c2.923,0,5.144,0.592,6.143,1.11l-1.147,4.478c-1.146-0.481-2.738-0.925-4.736-0.925
		c-4.477,0-7.956,2.701-7.956,8.252c0,4.995,2.96,8.14,7.993,8.14c1.702,0,3.589-0.37,4.699-0.814L147.244,37.963z"/>
	<path fill="#1A8DC6" d="M172.662,25.938c0,8.178-4.958,13.136-12.247,13.136c-7.401,0-11.73-5.587-11.73-12.692
		c0-7.475,4.773-13.062,12.137-13.062C168.481,13.32,172.662,19.055,172.662,25.938z M154.643,26.271
		c0,4.884,2.294,8.326,6.068,8.326c3.811,0,5.994-3.626,5.994-8.474c0-4.477-2.146-8.326-6.031-8.326
		C156.862,17.797,154.643,21.423,154.643,26.271z"/>
	<path fill="#1A8DC6" d="M197.452,29.12c-0.11-2.997-0.222-6.623-0.222-10.25h-0.111c-0.776,3.182-1.813,6.734-2.774,9.658
		l-3.034,9.731h-4.403l-2.665-9.657c-0.813-2.923-1.665-6.476-2.257-9.732h-0.074c-0.147,3.367-0.259,7.215-0.443,10.324
		l-0.444,9.473h-5.218l1.592-24.94h7.512l2.441,8.326c0.777,2.886,1.555,5.995,2.109,8.918h0.111
		c0.703-2.886,1.554-6.18,2.368-8.955l2.664-8.289h7.363l1.369,24.94h-5.514L197.452,29.12z"/>
	<path fill="#1A8DC6" d="M207.848,32.857c1.518,0.777,3.849,1.554,6.254,1.554c2.59,0,3.959-1.073,3.959-2.701
		c0-1.554-1.184-2.442-4.182-3.515c-4.144-1.443-6.845-3.737-6.845-7.364c0-4.255,3.552-7.511,9.436-7.511
		c2.812,0,4.884,0.592,6.364,1.258l-1.258,4.552c-0.999-0.481-2.775-1.185-5.218-1.185s-3.626,1.11-3.626,2.405
		c0,1.591,1.406,2.294,4.625,3.516c4.403,1.628,6.476,3.922,6.476,7.438c0,4.181-3.219,7.733-10.064,7.733
		c-2.85,0-5.662-0.74-7.067-1.517L207.848,32.857z"/>
</g>
</svg>
